HIERARCHY
ROOT Hips
{
   OFFSET 0.00000 0.00000 0.00000
   CHANNELS 6 Xposition Yposition Zposition Zrotation Xrotation Yrotation
   JOINT RightUpLeg
   {
      OFFSET -8.051219 -7.800363 0.091487
      CHANNELS 3 Zrotation Xrotation Yrotation
      JOINT RightLeg
      {
         OFFSET 0.000000 -39.980428 1.235430
         CHANNELS 3 Zrotation Xrotation Yrotation
         JOINT RightFoot
         {
            OFFSET 0.228194 -37.883157 -1.314531
            CHANNELS 3 Zrotation Xrotation Yrotation
            JOINT RightToes
            {
               OFFSET 0.036000 -3.973581 7.649189
               CHANNELS 3 Zrotation Xrotation Yrotation
               End Site
               {
                  OFFSET -0.072000 -0.123703 8.801811
               }
            }
         }
      }
   }
   JOINT Spine
   {
      OFFSET 0.000000 10.701450 0.000000
      CHANNELS 3 Zrotation Xrotation Yrotation
      JOINT Spine1
      {
         OFFSET 0.000000 23.091659 0.114897
         CHANNELS 3 Zrotation Xrotation Yrotation
         JOINT HEad
         {
            OFFSET 0.000000 7.860744 0.010207
            CHANNELS 3 Zrotation Xrotation Yrotation
            End Site
            {
               OFFSET -0.261000 11.496780 2.262555
            }
         }
         JOINT LeftShoulder1
         {
            OFFSET 8.091000 -0.326027 -0.198000
            CHANNELS 3 Zrotation Xrotation Yrotation
            JOINT LeftArm
            {
               OFFSET 9.254430 -0.003042 0.289911
               CHANNELS 3 Zrotation Xrotation Yrotation
               JOINT LeftForeArm
               {
                  OFFSET 29.490208 0.089230 -1.281906
                  CHANNELS 3 Zrotation Xrotation Yrotation
                  JOINT LeftHand
                  {
                     OFFSET 24.807870 0.076826 0.919944
                     CHANNELS 3 Zrotation Xrotation Yrotation
                     End Site
                     {
                        OFFSET 15.069871 -0.540000 1.352619
                     }
                  }
               }
            }
         }
         JOINT RightShoulder
         {
            OFFSET -8.091000 -0.326027 -0.198000
            CHANNELS 3 Zrotation Xrotation Yrotation
            JOINT RightArm
            {
               OFFSET -9.254430 -0.003042 0.289911
               CHANNELS 3 Zrotation Xrotation Yrotation
               JOINT RightForeArm
               {
                  OFFSET -29.607386 0.089230 -1.281906
                  CHANNELS 3 Zrotation Xrotation Yrotation
                  JOINT RightHand
                  {
                     OFFSET -24.742889 0.076826 0.919944
                     CHANNELS 3 Zrotation Xrotation Yrotation
                     End Site
                     {
                        OFFSET -14.968080 -0.540000 1.352619
                     }
                  }
               }
            }
         }
      }
   }
   JOINT LeftUpLeg
   {
      OFFSET 8.051219 -7.800363 0.091487
      CHANNELS 3 Zrotation Xrotation Yrotation
      JOINT LeftLeg
      {
         OFFSET 0.000000 -39.980428 1.235430
         CHANNELS 3 Zrotation Xrotation Yrotation
         JOINT LeftFoot
         {
            OFFSET -0.228194 -37.883157 -1.314531
            CHANNELS 3 Zrotation Xrotation Yrotation
            JOINT LeftToes
            {
               OFFSET -0.036000 -3.973581 7.649189
               CHANNELS 3 Zrotation Xrotation Yrotation
               End Site
               {
                  OFFSET 0.072000 -0.042703 8.801811
               }
            }
         }
      }
   }
}
MOTION
Frames: 7
Frame Time: 0.016667
-12.4005 68.3669 -190.233 -14.5258 2.50231 -11.6268 -6.99499 -32.6356 -25.1476 -173.911 79.5272 173.612 46.3988 -17.3562 1.39665 0.0462049 0.000533403 0.662642 -5.7382 31.4927 4.43507 -4.7279 -1.61682 9.78539 -9.25149 -6.33277 37.5762 1.19271e-015 -3.18055e-015 -7.95139e-016 -164.305 -22.1729 -148.402 -128.31 20.2887 -0.720952 9.84815 40.4961 -8.31252 8.40999 1.2566 13.954 107.08 -25.5823 85.4001 106.706 55.7001 15.895 -8.16173 29.3052 4.08659 63.5041 -71.167 43.3855 62.9221 62.8105 -55.795 -4.47716 15.5657 -21.476 -3.36952e-008 1.56033e-007 -4.88727e-009 
-10.679 70.4833 -189.689 -14.4296 1.11571 -14.0675 -11.7358 -25.7542 -25.0183 166.049 86.4794 -162.705 48.4148 -13.7562 2.79631 0.0462049 0.000533403 0.662642 -5.8009 31.8341 4.44838 -4.62246 -1.58138 9.57012 -9.35156 -6.49442 37.7978 3.13086e-015 -6.36111e-015 9.44227e-016 -164.879 -22.6974 -148.481 -127.585 20.9363 -1.63549 9.39147 40.1086 -8.17785 7.90475 1.26891 14.4543 107.696 -25.0354 85.9122 105.698 55.1381 16.4813 -7.86796 29.5863 4.41556 53.4089 -67.2215 32.8198 58.1617 65.3136 -50.462 -2.50772 12.2182 -19.7071 -3.36952e-008 1.56033e-007 -4.88727e-009 
-8.79399 72.9985 -188.631 -14.192 -0.19282 -16.3945 -14.8275 -19.0914 -23.8378 26.9158 84.5166 -21.367 51.7932 -9.83801 3.20077 0.0462049 0.000533403 0.662642 -5.75851 31.4972 4.53259 -4.4981 -1.53954 9.31604 -9.50738 -6.10876 37.877 2.78299e-015 6.36111e-015 -7.95139e-016 -165.129 -23.4726 -148.417 -126.759 21.6057 -2.44566 8.91451 39.7345 -7.93847 7.51213 1.54128 14.8831 108.337 -24.4529 86.6117 104.569 54.5026 17.0394 -7.5217 29.896 4.64509 47.2639 -61.8239 25.4188 47.4199 67.5958 -39.1023 -3.9829 11.027 -17.6857 -3.36952e-008 1.56033e-007 -4.88727e-009 
-6.82013 75.9035 -187.114 -13.8178 -1.37475 -18.561 -16.6883 -12.5933 -21.9437 14.291 75.0099 -8.16996 56.5881 -5.99392 2.76991 0.0462049 0.000533403 0.662642 -5.57511 30.557 4.71241 -4.35647 -1.49187 9.02646 -9.71799 -5.24919 37.7592 2.38542e-015 0 7.95139e-016 -161.554 -22.309 -147.276 -123.187 22.1645 -1.45407 8.50664 39.372 -7.50251 7.25452 2.01338 15.2082 108.978 -23.8377 87.455 103.341 53.8572 17.5119 -7.21843 30.1226 4.8494 43.2578 -55.8811 20.2372 31.9313 68.6671 -23.5731 -4.61545 10.3165 -15.6435 -3.36952e-008 1.56033e-007 -4.88727e-009 
-4.19261 80.6838 -184.208 -13.2921 -2.40235 -20.5457 -15.2364 -11.6594 -20.1283 4.08304 69.4452 -4.37571 38.0546 -4.07315 1.89749 0.0462049 0.000533403 0.662642 -5.20483 29.0644 4.99696 -4.19922 -1.43891 8.70463 -10.0392 -3.95436 37.4143 3.97569e-016 -6.36111e-015 -1.59028e-015 -156.221 -20.0049 -146.873 -121.34 24.8417 -1.39768 7.95206 36.5556 -2.59483 7.51049 2.55863 15.2448 111.522 -20.0545 90.6525 101.447 51.2957 14.9474 -7.11346 30.4249 5.32099 38.9546 -48.3017 16.0245 13.4749 66.3924 -5.75477 -3.61443 9.93869 -13.4556 -3.36952e-008 1.56033e-007 -4.88727e-009 
-1.61848 85.4014 -181.111 -12.6333 -3.28862 -22.3627 -12.4842 -8.90351 -17.5522 -0.729639 61.0398 -5.88487 19.2268 -3.0084 0.767766 0.0462049 0.000533403 0.662642 -4.66852 27.1569 5.38954 -4.02801 -1.3812 8.35386 -10.4676 -2.31708 36.8821 7.95139e-016 -3.18055e-015 -0 -153.773 -19.162 -146.702 -120.685 26.6617 -1.03208 7.53986 34.5383 0.51556 7.8441 3.3077 15.1094 112.89 -17.7715 92.5741 100.395 49.9348 13.3399 -6.92825 30.3611 5.24715 36.2551 -40.5848 14.1951 -1.85937 61.5394 7.20282 -1.26405 10.3282 -11.5482 -3.36952e-008 1.56033e-007 -4.88727e-009 
0.530464 89.4051 -178.117 -11.8723 -4.0423 -24.0442 -14.0242 -0.821766 -13.9407 -0.56101 47.8002 -9.25153 29.1391 -0.403176 0.122548 0.0462049 0.000533403 0.662642 -4.06189 25.3504 5.78717 -3.84447 -1.31928 7.97742 -10.9628 -0.824445 36.2895 -2.78299e-015 3.18055e-015 3.18055e-015 -153.244 -19.1147 -146.874 -120.711 27.9088 -0.651125 7.42836 33.5022 1.76202 8.21636 3.87776 14.9316 113.573 -16.4108 93.684 99.8257 49.3561 12.3962 -7.08583 30.3041 5.39498 34.9667 -33.5404 14.4925 -9.82172 56.0171 11.9179 0.00157656 11.1952 -10.0926 -3.36952e-008 1.56033e-007 -4.88727e-009 
